<svg width="154" height="102" viewBox="0 0 154 102" fill="none" xmlns="http://www.w3.org/2000/svg">
<g filter="url(#filter0_d_34_9)">
<path d="M71.8467 61.6626C71.9086 61.671 71.9221 61.6735 71.9824 61.6812C72.9911 61.8164 73.9823 61.9956 74.741 62.33C75.4441 62.6361 75.8563 63.0235 76.2326 63.714C76.8048 64.761 76.8421 66.228 76.325 67.3382C75.9387 68.1643 75.0908 68.8571 74.3166 69.2242C73.5127 69.6085 72.7206 69.7915 71.8122 69.8938C70.2234 70.0662 68.5074 69.7417 67.0777 69.0599C66.2319 68.6527 65.1991 67.9513 64.678 67.0478C64.2949 66.3859 64.3071 65.5247 64.7732 64.8955C65.5162 63.8929 67.1076 63.6721 68.3063 63.714C69.2201 63.7489 70.8655 64.0274 71.7331 64.3317C71.9736 64.4174 72.8605 64.7581 73.0153 64.9143C73.1243 65.023 73.1949 65.1809 73.146 65.3269C72.9478 65.9247 71.4743 66.2399 71.0488 66.3032C69.9098 66.4752 69.3187 66.0502 68.0238 65.5461C67.7024 65.422 67.274 65.2843 66.9467 65.2544C66.3588 65.1992 65.6487 65.3616 65.5365 65.9943C65.4807 66.3204 65.8686 66.6254 66.1644 66.7536C66.859 67.0478 67.4237 67.1536 68.1074 67.1626C70.1269 67.1954 72.3966 66.8676 74.0485 65.7136C74.2746 65.5545 74.4967 65.3216 74.4991 65.028C74.5062 64.4351 73.452 64.0725 73.452 64.0725C72.3393 63.6151 70.2833 63.3925 69.2241 63.3065C68.1126 63.2116 66.3637 63.0697 65.9439 63.0088C65.5115 62.9479 65.0419 62.8619 64.6675 62.6965C64.2914 62.529 63.9235 62.154 63.8143 61.7393C63.6206 60.9916 63.8677 60.0741 64.2888 59.4768C65.3926 57.9123 67.9781 57.3181 69.9097 57.0821C71.7792 56.8527 74.8015 56.855 76.6377 57.8171C76.9212 57.9669 77.066 58.1063 77.0067 58.4051C76.8871 58.9661 76.4595 59.3276 75.9412 59.4861C75.3974 59.6567 74.2726 59.7232 73.7786 59.7539C71.5648 59.8762 68.8896 59.8121 66.7809 60.379C66.6157 60.4255 66.3304 60.5014 66.2376 60.6035C65.9076 60.9568 66.8503 61.0577 67.0522 61.0981C67.1122 61.1123 67.1239 61.1143 67.1865 61.121L71.8467 61.6626ZM58.6768 51.9298C58.6768 51.9298 59.0368 51.3973 59.3386 50.9934C59.8879 50.2577 60.8821 49.2374 61.6309 48.6058C61.8599 48.4129 62.1299 48.1943 62.1299 48.1943C62.1299 48.1943 61.7076 48.2374 61.4682 48.2857C60.9002 48.3947 60.0672 48.9405 59.651 49.2932C58.9643 49.8729 58.209 50.8151 58.5508 51.6524C58.6004 51.7707 58.6768 51.9298 58.6768 51.9298ZM62.4946 52.9371C63.5795 52.8634 64.5958 52.5554 65.542 52.0379C66.4699 51.526 67.8347 50.5277 67.6932 49.3542C67.6502 48.9743 67.3979 48.6875 67.0795 48.5537C66.6657 48.3769 66.4499 48.4054 65.9212 48.5603C65.5372 48.6711 65.3641 48.7383 65.0015 48.9429C63.9372 49.5526 62.4281 50.8574 61.6088 51.8988C61.4197 52.1444 61.2282 52.419 61.0784 52.6073C60.9838 52.7233 60.9104 52.8299 60.9195 52.8583C60.9523 52.9763 62.0709 52.9655 62.4946 52.9371ZM59.7322 54.9377C59.6204 55.0544 59.502 55.3358 59.3792 55.5395C59.3136 55.6485 59.1921 55.7888 59.1116 55.8452C58.8293 56.0499 58.5901 56.0594 58.3175 55.8229C57.9352 55.4895 57.7141 54.9739 57.6984 54.4723C57.6903 54.2534 57.7283 54.0113 57.6863 53.8267C57.6168 53.5152 57.3006 53.1943 57.1301 52.8965C56.93 52.5457 56.7681 51.9339 56.7479 51.5389C56.6792 50.3073 57.3377 49.1727 58.193 48.2779C59.0544 47.3731 60.1814 46.6211 61.407 46.1091C62.5655 45.628 64.2632 45.3 65.5354 45.7344C65.9496 45.8743 66.5266 46.2219 66.8166 46.5859C66.8782 46.6615 66.9283 46.7432 66.9915 46.7832C67.0481 46.8187 67.196 46.8328 67.3137 46.8541C67.7195 46.9234 68.3037 47.2263 68.5424 47.4281C69.0218 47.8359 69.2845 48.2257 69.406 48.7914C69.6497 49.9297 68.9849 51.1786 68.2276 51.9386C66.931 53.2468 65.6505 54.1665 63.9918 54.8068C63.2633 55.0874 62.1286 55.3496 61.302 55.2762C61.0453 55.2553 60.7817 55.1886 60.5317 55.1722C60.4041 55.1614 59.9378 55.0428 59.8879 55.0093C59.8261 54.9625 59.7462 54.9218 59.7322 54.9377ZM61.2137 57.4614C61.2642 57.4698 61.342 57.4921 61.409 57.5175C61.9905 57.7356 62.2297 58.2662 62.373 58.849C62.7049 60.2024 62.8466 63.1966 62.9018 64.3686C62.9424 65.2483 62.9647 66.1137 63.0021 66.9832C63.0338 67.7195 63.0934 68.6985 62.9377 69.3883C62.8811 69.6365 62.7128 69.925 62.4718 70.0728C62.1957 70.247 61.5672 70.2603 61.2218 70.19C60.3704 70.0164 60.0938 69.4767 59.9723 68.6465C59.6834 66.6655 59.8225 62.7776 59.993 61.1371C60.0496 60.5952 60.2566 58.8591 60.5436 58.1311C60.6416 57.8857 60.8502 57.3913 61.2137 57.4614ZM35.3122 60.7573C35.3122 60.7573 34.045 60.8458 33.1728 60.9412C32.0633 61.059 29.9784 61.414 28.775 61.8377C28.414 61.9651 27.6807 62.2677 27.617 62.6336C27.55 63.013 27.7888 63.3096 28.0543 63.6165C28.2079 63.7947 29.077 64.619 29.3207 64.8194C30.3423 65.6603 32.4137 66.9571 33.9394 67.5869C34.4635 67.8007 35.3306 68.1068 35.3306 68.1068C35.3306 68.1068 35.2662 65.6725 35.2778 63.2747C35.2845 62.0097 35.3122 60.7573 35.3122 60.7573ZM58.5469 61.7261C58.6195 62.3801 58.4491 63.6166 58.4195 63.7797C58.3655 64.1556 58.078 65.0227 58.0303 65.1284C57.7982 65.6554 57.5694 66.0872 57.3269 66.5179C56.9114 67.2552 55.9234 68.4241 55.3368 68.9243C53.1556 70.7832 49.779 71.8415 46.8823 72.1901C44.9167 72.4242 42.6581 72.3899 40.5754 72.0099C39.8586 71.8814 38.7919 71.639 38.7919 71.639C38.7919 71.639 38.7953 72.0595 38.7612 72.3552C38.7446 72.4902 38.6416 72.8453 38.5838 72.9604C38.4324 73.2688 38.1837 73.4279 37.8222 73.4964C37.3858 73.5762 36.923 73.6028 36.5198 73.4329C35.8578 73.1583 35.6202 72.5476 35.5048 71.8433C35.4115 71.28 35.3138 70.3008 35.3138 70.3008C35.3138 70.3008 34.8186 70.0696 34.4056 69.8664C33.1372 69.2502 31.9326 68.5036 30.8786 67.7358C30.5867 67.5209 29.3323 66.4851 29.0554 66.2279C28.279 65.5011 27.5806 64.7782 27.0493 63.8505C26.6362 63.1257 26.5173 62.4825 26.8314 61.7145C27.2646 60.6442 28.8211 59.8383 29.8863 59.379C30.6682 59.0386 33.0994 58.2559 34.1093 58.1108C34.5863 58.0436 35.3262 57.9129 35.3716 57.8838C35.3902 57.8698 35.4031 57.8578 35.4165 57.8427C35.4398 57.8103 35.4791 56.7508 35.4715 56.3632C35.4617 55.9821 35.7576 53.4791 35.8527 52.9498C35.9023 52.6636 36.1221 51.5618 36.3466 51.2725C36.4934 51.0771 36.753 51.0929 36.9647 51.2212C38.123 51.9313 38.4749 54.3942 38.561 55.6474C38.6126 56.4109 38.6382 57.5593 38.6382 57.5593C38.6382 57.5593 39.967 57.5206 40.7843 57.5434C41.5787 57.5617 42.4542 57.6852 43.2786 57.8148C44.3341 57.9816 46.3914 58.4241 47.5713 59.0139C48.5429 59.4996 49.4523 60.3178 49.747 61.1838C50.0207 61.9777 49.9797 62.5271 49.5628 63.2435C49.0939 64.0525 48.2071 64.6538 47.308 64.7041C47.0404 64.7193 46.0333 64.5873 45.7234 64.3508C45.6019 64.2565 45.6082 64.0863 45.6959 63.9709C45.7291 63.9304 46.1999 63.6836 46.4777 63.5396C46.6171 63.4649 46.7323 63.3844 46.8411 63.2867C47.0719 63.0863 47.2797 62.8656 47.2565 62.607C47.2246 62.2713 46.8643 62.0643 46.5209 61.9311C44.9096 61.3 41.6927 60.7761 40.1381 60.6855C39.5296 60.6502 38.6641 60.6201 38.6641 60.6201L38.8471 69.084C38.8471 69.084 39.5627 69.2184 40.1266 69.3085C40.4501 69.3569 41.8211 69.4786 42.1855 69.4874C44.9595 69.5596 48.0556 69.3147 50.6013 68.1302C51.719 67.6116 52.7444 66.966 53.5206 66.0919C54.5437 64.9354 55.0795 63.3526 54.9378 61.6994C54.7823 59.8939 53.4935 57.7506 52.4644 56.4456C49.7451 52.9976 45.084 50.1614 40.9833 48.4986C36.7967 46.8021 32.659 45.8261 28.2159 45.6627C27.0704 45.6208 24.5729 45.6778 23.3105 46.0221C23.1302 46.0722 22.9484 46.1321 22.781 46.1692C22.6487 46.2011 22.4402 46.2875 22.383 46.3331C22.3513 46.3584 22.32 46.3934 22.32 46.3934C22.32 46.3934 22.3978 46.4358 22.4722 46.4668C22.6059 46.5243 23.1688 46.5588 23.4601 46.6113C23.7207 46.6597 23.9921 46.7947 24.0995 46.9829C24.2016 47.1619 24.2143 47.3031 24.0924 47.4524C23.8063 47.7954 22.7297 47.7375 22.2556 47.6635C21.7629 47.5861 21.1495 47.4375 21.0368 47.0145C20.9061 46.5164 21.1461 46.0281 21.4054 45.5766C21.9263 44.6734 22.6724 44.2037 23.7651 43.9095C25.3171 43.4884 27.2767 43.194 28.7422 43.1388C32.0592 43.0152 35.1986 43.5872 38.4124 44.5492C40.2518 45.0976 42.6599 46.0178 44.4229 46.8547C45.6879 47.4561 47.6811 48.5621 48.8007 49.2848C49.1539 49.5146 51.2204 51.0117 51.5414 51.2749C52.211 51.8146 53.0868 52.5905 53.7211 53.211C54.9482 54.4099 56.4744 56.2477 57.2158 57.7063C57.3942 58.0556 57.5325 58.3993 57.7626 58.8041C57.8418 58.9428 58.1805 59.7723 58.2368 60.012C58.2926 60.249 58.3744 60.5976 58.3859 60.6114C58.4022 60.7387 58.5593 61.4514 58.5469 61.7261ZM100.247 59.8547C98.6937 60.2079 94.609 60.404 94.609 60.404L94.0939 61.9948C94.0939 61.9948 96.1352 61.823 97.6202 61.9759C97.6202 61.9759 98.1013 61.9208 98.1579 62.5145C98.177 63.0682 98.1102 63.6623 98.1102 63.6623C98.1102 63.6623 98.0794 64.0217 97.5627 64.1132C97.0028 64.2051 93.1629 64.3516 93.1629 64.3516L92.5411 66.4252C92.5411 66.4252 92.31 66.9046 92.8279 66.7678C93.3091 66.6408 97.3326 65.8964 97.8566 66.0035C98.4182 66.141 99.0397 66.8792 98.86 67.5519C98.6459 68.3858 94.6301 70.9109 92.1846 70.7347C92.1846 70.7347 90.8995 70.8164 89.8134 69.1064C88.8018 67.4769 90.1967 64.3916 90.1967 64.3916C90.1967 64.3916 89.5573 62.9512 90.0207 62.463C90.0207 62.463 90.2964 62.2163 91.1002 62.1606L92.0845 60.1529C92.0845 60.1529 90.9634 60.2289 90.2964 59.4158C89.6751 58.6443 89.6231 58.2897 90.0994 58.0767C90.6088 57.8287 95.2776 56.9885 98.4903 57.0951C98.4903 57.0951 99.6068 56.987 100.575 58.8965C100.575 58.8965 101.044 59.6689 100.247 59.8547ZM88.1633 67.5743C87.7516 68.5292 86.6639 69.5482 85.3128 68.9148C83.979 68.2801 81.8544 63.9928 81.8544 63.9928C81.8544 63.9928 81.0479 62.3941 80.8928 62.4353C80.8928 62.4353 80.7185 62.1231 80.6117 63.8701C80.5006 65.6097 80.6331 69.0017 79.9293 69.5356C79.2625 70.071 78.4552 69.8579 78.0366 69.2324C77.656 68.6162 77.4976 67.152 77.7053 64.5805C77.9493 62.004 78.5564 59.2627 79.332 58.4091C80.1064 57.5612 80.7283 58.1767 80.9706 58.4C80.9706 58.4 82.0066 59.3259 83.7151 62.0445L84.0166 62.5474C84.0166 62.5474 85.5691 65.1159 85.7313 65.1099C85.7313 65.1099 85.8582 65.2279 85.9713 65.1431C86.1343 65.0972 86.0685 64.2736 86.0685 64.2736C86.0685 64.2736 85.7464 61.4745 84.3301 56.7366C84.3301 56.7366 84.1159 56.1459 84.2607 55.5923C84.4045 55.0328 84.9733 55.2954 84.9733 55.2954C84.9733 55.2954 87.1685 56.3837 88.234 59.9076C89.2926 63.4326 88.5812 66.6123 88.1633 67.5743ZM111.789 65.4638C110.79 67.1829 107.969 70.7824 104.22 69.9325C102.982 72.8927 101.942 75.8872 101.347 80.3679C101.347 80.3679 101.216 81.2386 100.482 80.9362C99.7549 80.6852 98.5568 79.4929 98.3145 77.8434C98.0537 75.6767 99.0321 72.0139 101.032 67.814C100.448 66.8792 100.051 65.5437 100.391 63.642C100.391 63.642 100.893 60.1106 104.49 56.9277C104.49 56.9277 104.922 56.5605 105.172 56.6736C105.447 56.7874 105.319 57.9366 105.101 58.4953C104.874 59.0509 103.273 61.7843 103.273 61.7843C103.273 61.7843 102.274 63.631 102.555 65.0876C104.441 62.2278 108.73 56.461 111.388 58.2796C112.281 58.9094 112.692 60.2795 112.692 61.7558C112.693 63.0526 112.376 64.4309 111.789 65.4638ZM111.013 60.9347C111.013 60.9347 110.865 59.7977 109.738 61.0503C108.768 62.1073 107.019 64.0878 105.611 66.7777C107.089 66.6141 108.514 65.8239 108.944 65.4214C109.645 64.8086 111.277 63.1461 111.013 60.9347ZM132.442 60.6759H125.571C125.434 58.3733 125.152 56.1304 124.709 53.8205C124.663 53.5814 124.452 53.408 124.207 53.408H122.623C122.485 53.408 122.354 53.4691 122.265 53.5756C122.175 53.684 122.14 53.8218 122.167 53.9567C122.617 56.192 122.902 58.3921 123.043 60.6781H116.432C116.124 60.6781 115.874 60.924 115.874 61.2264V62.6351C115.874 62.9382 116.124 63.1859 116.432 63.1859H123.137C123.141 63.5335 123.145 63.8448 123.145 64.1369C123.145 66.167 123.056 67.8393 122.849 69.7266C122.832 69.8724 122.881 70.0177 122.981 70.1247C123.078 70.2326 123.218 70.2941 123.364 70.2941H124.833C125.119 70.2941 125.357 70.0814 125.386 69.7999C125.586 67.8999 125.672 66.2068 125.672 64.1368C125.672 63.8458 125.669 63.5334 125.665 63.1858H132.442C132.749 63.1858 133 62.9381 133 62.635V61.2263C133 60.9226 132.749 60.6759 132.442 60.6759Z" fill="white"/>
<path d="M40.568 41.8C40.4706 41.9427 40.4471 42.1177 40.503 42.2821C40.5614 42.4462 40.6883 42.571 40.8522 42.6276L42.0839 43.0363C42.1584 43.0593 42.2324 43.0713 42.305 43.0713C42.5332 43.0713 42.7475 42.9599 42.8744 42.7729C46.9088 36.9291 52.369 32.0635 58.6657 28.7021C65.1661 25.2313 72.5311 23.3954 79.9667 23.3954C88.9477 23.3954 97.6131 26.0075 105.027 30.9487C112.26 35.7685 117.878 42.4929 121.273 50.3953C121.375 50.6318 121.609 50.7843 121.869 50.7843H123.34C123.509 50.7843 123.668 50.7002 123.764 50.5605C123.861 50.4211 123.879 50.2441 123.815 50.0874C120.314 41.5907 114.394 34.3476 106.693 29.1439C98.81 23.8165 89.568 21 79.9667 21C64.094 21 49.365 28.7759 40.568 41.8Z" fill="white"/>
</g>
<defs>
<filter id="filter0_d_34_9" x="0.200001" y="0.200001" width="153.6" height="101.6" filterUnits="userSpaceOnUse" color-interpolation-filters="sRGB">
<feFlood flood-opacity="0" result="BackgroundImageFix"/>
<feColorMatrix in="SourceAlpha" type="matrix" values="0 0 0 0 0 0 0 0 0 0 0 0 0 0 0 0 0 0 127 0" result="hardAlpha"/>
<feOffset/>
<feGaussianBlur stdDeviation="10.4"/>
<feComposite in2="hardAlpha" operator="out"/>
<feColorMatrix type="matrix" values="0 0 0 0 1 0 0 0 0 1 0 0 0 0 1 0 0 0 0.78 0"/>
<feBlend mode="normal" in2="BackgroundImageFix" result="effect1_dropShadow_34_9"/>
<feBlend mode="normal" in="SourceGraphic" in2="effect1_dropShadow_34_9" result="shape"/>
</filter>
</defs>
</svg>
